<svg id="Capa_1" data-name="Capa 1" xmlns="http://www.w3.org/2000/svg" viewBox="0 0 400 400"><title>logo yosoytriuno</title><path d="M168.8,150.18,305.57,287.49c1.76,1.78,3.46,3.64,5.29,5.57l-48.6,47.29c-11.11-11.28-23-23.51-35.07-35.6q-51.37-51.54-103-102.86a17.62,17.62,0,0,0-11.13-4.59c-28.56-.38-57.13-.21-86.93-.21,1.83-2.3,2.86-3.88,4.16-5.19,12-12.16,24-24.44,36.34-36.24a16.9,16.9,0,0,1,10.45-4.38c27.83-.36,55.67-.18,83.51-.23,2.75,0,5.5-.5,8.25-.77Z" fill="#c7513f"/><path d="M168.86,150.28c14.21-14.54,28.6-28.89,42.49-43.72,4-4.28,7.94-6.09,13.8-6,26,.3,52-.06,78,.33a17.81,17.81,0,0,1,11.17,4.49c15,14.49,29.55,29.49,44.87,44.94a34.74,34.74,0,0,1-4.63.69Q264.3,151,174,151a33.76,33.76,0,0,1-5.22-.78S168.86,150.28,168.86,150.28Z" fill="#c7513f"/></svg>